<svg width="114" height="97" viewBox="0 0 114 97" fill="none" xmlns="http://www.w3.org/2000/svg">
<path d="M56.6165 96.6514C83.1956 96.6514 104.942 74.9048 104.942 48.3257C104.942 41.2962 103.589 34.8466 101.005 28.9769C98.5099 23.3081 99.5095 16.4126 102.308 10.8871C105.088 5.39783 99.9541 0 93.801 0H56.6165C30.0373 0 8.29077 21.7466 8.29077 48.3257C8.29077 74.9048 30.0373 96.6514 56.6165 96.6514ZM56.6165 22.2298C71.1142 22.2298 82.7123 33.828 82.7123 48.3257C82.7123 62.8234 71.1142 74.4216 56.6165 74.4216C42.1188 74.4216 30.5206 62.8234 30.5206 48.3257C30.5206 33.828 42.1188 22.2298 56.6165 22.2298Z" fill="#EBFBF0"/>
<path fill-rule="evenodd" clip-rule="evenodd" d="M6.10353 8.56333C5.74327 8.86437 5.27609 9.07231 4.83213 9.22876L4.82853 9.22893C4.76839 9.23172 4.43331 9.24726 4.30527 9.27367C4.13585 9.30824 4.0093 9.37916 3.92459 9.45208C3.78783 9.56942 3.71078 9.71477 3.68807 9.88459C3.67276 9.99966 3.68067 10.1377 3.75746 10.2956C3.80263 10.3888 3.92714 10.5616 4.18841 10.6648C4.36727 10.7352 4.87374 10.8579 4.9365 10.873C5.41898 11.0855 5.74811 11.3517 6.05454 11.7754C6.08476 11.8171 6.11455 11.858 6.14382 11.8981C6.43189 12.293 6.67093 12.6207 6.79855 13.112C6.83365 13.2471 6.87653 13.3796 6.91943 13.5122C6.94857 13.6022 6.97772 13.6923 7.00445 13.7833C7.0042 13.8509 7.00547 14.0003 7.01669 14.0591C7.04017 14.1812 7.08942 14.2768 7.14249 14.3482C7.23996 14.4787 7.36702 14.5607 7.5201 14.5981C7.62548 14.6238 7.75305 14.6316 7.90435 14.5806C8.13015 14.5049 8.39908 14.2907 8.63841 13.9657C8.79895 13.7476 8.95793 13.4682 9.10389 13.2116C9.25277 12.95 9.3881 12.7121 9.49773 12.5874C10.2022 11.7862 11.4144 10.8712 12.4615 10.6149C12.5304 10.6015 12.6001 10.5869 12.6707 10.5715C13.0093 10.4975 13.2264 10.1697 13.1593 9.83337C13.0922 9.49674 12.7656 9.27494 12.424 9.33398C12.3518 9.34635 12.2788 9.36149 12.2051 9.37916C11.4302 9.53586 10.8237 9.57345 10.3165 9.3736C9.79193 9.16693 9.40512 8.70035 9.01908 7.93778C8.76294 7.43203 8.69543 6.96065 8.61878 6.42547C8.6103 6.36625 8.6017 6.30625 8.59273 6.24534C8.56569 6.06164 8.53685 5.87894 8.50241 5.69624C8.49568 5.66002 8.49023 5.59861 8.4849 5.53853C8.47931 5.47555 8.47386 5.41405 8.4672 5.38461C8.44934 5.30613 8.42281 5.24884 8.4024 5.21124C8.25926 4.94856 8.04161 4.88926 7.88317 4.87791C7.74947 4.86807 7.60737 4.8943 7.46678 4.99246L7.46415 4.9943C7.40717 5.03406 7.28049 5.12246 7.21417 5.35054C7.11045 5.7062 7.04638 6.07475 6.98265 6.4413C6.93461 6.71763 6.88677 6.99282 6.82228 7.26051C6.70543 7.74525 6.53141 8.20577 6.10353 8.56333ZM100.861 78.5633C100.501 78.8644 100.033 79.0723 99.5895 79.2288C99.5407 79.231 99.1935 79.2467 99.0626 79.2737C98.8932 79.3082 98.7666 79.3792 98.6819 79.4521C98.5452 79.5694 98.4681 79.7148 98.4454 79.8846C98.4301 79.9997 98.438 80.1377 98.5148 80.2956C98.56 80.3888 98.6845 80.5616 98.9457 80.6648C99.1246 80.7352 99.6311 80.8579 99.6938 80.873C100.176 81.0855 100.505 81.3517 100.812 81.7754C100.842 81.8171 100.872 81.858 100.901 81.8981C101.189 82.293 101.428 82.6207 101.556 83.112C101.591 83.2471 101.634 83.3796 101.677 83.5122C101.706 83.6022 101.735 83.6923 101.762 83.7833C101.762 83.8509 101.763 84.0003 101.774 84.0591C101.797 84.1812 101.847 84.2768 101.9 84.3482C101.997 84.4787 102.124 84.5607 102.277 84.5981C102.383 84.6238 102.51 84.6316 102.662 84.5806C102.887 84.5049 103.156 84.2907 103.396 83.9657C103.556 83.7476 103.715 83.4682 103.861 83.2116C104.01 82.95 104.145 82.7122 104.255 82.5874C104.96 81.7862 106.172 80.8712 107.219 80.6149C107.269 80.6052 107.319 80.5948 107.37 80.584C107.389 80.5799 107.409 80.5757 107.428 80.5715C107.767 80.4975 107.984 80.1697 107.917 79.8334C107.85 79.4967 107.523 79.2749 107.181 79.334C107.109 79.3464 107.036 79.3615 106.962 79.3792C106.188 79.5359 105.581 79.5734 105.074 79.3736C104.549 79.1669 104.162 78.7004 103.776 77.9378C103.52 77.432 103.453 76.9607 103.376 76.4255C103.368 76.3663 103.359 76.3063 103.35 76.2453C103.323 76.0616 103.294 75.8789 103.26 75.6962C103.253 75.66 103.248 75.5986 103.242 75.5386C103.237 75.4756 103.231 75.4141 103.225 75.3846C103.207 75.3061 103.18 75.2488 103.16 75.2112C103.017 74.9486 102.799 74.8893 102.64 74.8779C102.507 74.8681 102.365 74.8943 102.224 74.9925L102.221 74.9943C102.164 75.0341 102.038 75.1225 101.971 75.3505C101.868 75.7062 101.804 76.0747 101.74 76.4413C101.692 76.7176 101.644 76.9928 101.58 77.2605C101.463 77.7453 101.289 78.2058 100.861 78.5633Z" fill="#B6DFB7"/>
<rect x="30.3437" y="23.5316" width="83.2042" height="29.4156" rx="14.7078" fill="white" stroke="#00160A" stroke-width="0.840447"/>
<rect x="57.6584" y="34.0371" width="42.0223" height="8.40447" rx="4.20223" fill="#D7F9D8"/>
<circle cx="45.0516" cy="38.2393" r="6.72357" fill="#D7F9D8"/>
<rect x="0.420223" y="48.7454" width="83.2042" height="29.4156" rx="14.7078" fill="white" stroke="#00160A" stroke-width="0.840447"/>
<rect opacity="0.5" x="27.7346" y="59.251" width="42.0223" height="8.40447" rx="4.20223" fill="#6DBF6F"/>
<circle opacity="0.5" cx="15.128" cy="63.4532" r="6.72357" fill="#6DBF6F"/>
</svg>
