<svg width="114" height="97" viewBox="0 0 114 97" fill="none" xmlns="http://www.w3.org/2000/svg">
<path d="M56.6167 96.6514C83.1958 96.6514 104.942 74.9048 104.942 48.3257C104.942 41.2962 103.589 34.8466 101.006 28.9769C98.5101 23.3081 99.5097 16.4126 102.308 10.8871C105.088 5.39783 99.9543 0 93.8012 0H56.6167C30.0376 0 8.29102 21.7466 8.29102 48.3257C8.29102 74.9048 30.0376 96.6514 56.6167 96.6514Z" fill="#EBEFFB"/>
<path fill-rule="evenodd" clip-rule="evenodd" d="M99.0669 79.1151C99.4105 79.0442 99.7656 79.0192 100.085 78.8751C100.366 78.7486 100.637 78.5953 100.865 78.4047C101.293 78.0472 101.467 77.5867 101.584 77.1019C101.734 76.4791 101.794 75.8157 101.976 75.1919C102.043 74.9603 102.173 74.8727 102.228 74.8339C102.369 74.7357 102.511 74.7095 102.645 74.7193C102.803 74.7307 103.021 74.79 103.164 75.0527C103.184 75.0902 103.211 75.1475 103.229 75.226C103.242 75.2835 103.25 75.4635 103.264 75.5377C103.299 75.7203 103.327 75.903 103.354 76.0867C103.444 76.6982 103.496 77.2175 103.781 77.7792C104.167 78.5418 104.554 79.0083 105.078 79.215C105.585 79.4149 106.192 79.3773 106.967 79.2206C107.04 79.2029 107.113 79.1878 107.186 79.1754C107.527 79.1163 107.854 79.3382 107.921 79.6748C107.988 80.0111 107.771 80.3389 107.432 80.4129C107.362 80.4283 107.292 80.4429 107.223 80.4563C106.176 80.7126 104.964 81.6276 104.259 82.4288C104.042 82.6759 103.724 83.3665 103.4 83.8071C103.161 84.1321 102.892 84.3464 102.666 84.4221C102.515 84.473 102.387 84.4652 102.282 84.4395C102.129 84.4021 102.002 84.3201 101.904 84.1896C101.851 84.1182 101.802 84.0226 101.778 83.9005C101.744 83.7205 101.74 83.5353 101.683 83.361C101.64 83.226 101.596 83.091 101.56 82.9534C101.42 82.4122 101.144 82.0695 100.816 81.6168C100.673 81.4193 100.526 81.2561 100.36 81.1165C99.9642 80.7838 99.431 80.6956 98.9501 80.5062C98.6888 80.403 98.5643 80.2302 98.5191 80.1371C98.4423 79.9791 98.4344 79.8411 98.4497 79.726C98.4724 79.5562 98.5495 79.4108 98.6862 79.2935C98.7709 79.2206 98.8975 79.1497 99.0669 79.1151Z" fill="#A3ABD7"/>
<path fill-rule="evenodd" clip-rule="evenodd" d="M4.30954 9.11522C4.65316 9.04434 5.00819 9.01938 5.32807 8.87524C5.60882 8.74873 5.87973 8.59546 6.1078 8.40489C6.53568 8.04732 6.7097 7.58681 6.82656 7.10206C6.97658 6.47929 7.03653 5.81587 7.21845 5.19209C7.2858 4.96044 7.41543 4.87288 7.47105 4.83402C7.61164 4.73586 7.75374 4.70962 7.88744 4.71946C8.04589 4.73082 8.26353 4.79011 8.40667 5.0528C8.42708 5.0904 8.45361 5.14768 8.47147 5.22616C8.48448 5.28369 8.4929 5.46361 8.50668 5.53779C8.54113 5.72049 8.56996 5.90319 8.597 6.08689C8.68707 6.69831 8.73887 7.21762 9.02336 7.77933C9.40939 8.54191 9.7962 9.00848 10.3208 9.21515C10.828 9.415 11.4345 9.37741 12.2094 9.22071C12.2831 9.20305 12.3561 9.1879 12.4283 9.17554C12.7699 9.11649 13.0965 9.3383 13.1636 9.67492C13.2307 10.0113 13.0136 10.3391 12.675 10.413C12.6043 10.4284 12.5347 10.443 12.4658 10.4564C11.4187 10.7128 10.2065 11.6278 9.502 12.429C9.28488 12.676 8.96697 13.3667 8.64268 13.8072C8.40335 14.1323 8.13442 14.3465 7.90862 14.4222C7.75732 14.4732 7.62975 14.4654 7.52437 14.4396C7.37129 14.4023 7.24423 14.3202 7.14676 14.1898C7.09369 14.1184 7.04444 14.0227 7.02097 13.9006C6.9866 13.7206 6.98252 13.5355 6.9261 13.3611C6.8824 13.2261 6.83857 13.0912 6.80282 12.9536C6.66224 12.4123 6.38642 12.0696 6.05881 11.6169C5.916 11.4195 5.76826 11.2562 5.60236 11.1167C5.20681 10.7839 4.67366 10.6957 4.19268 10.5064C3.93142 10.4032 3.8069 10.2303 3.76174 10.1372C3.68494 9.97923 3.67704 9.84121 3.69234 9.72614C3.71505 9.55632 3.79211 9.41097 3.92886 9.29364C4.01357 9.22071 4.14013 9.14979 4.30954 9.11522Z" fill="#A3ABD7"/>
<rect x="29.9233" y="23.1117" width="84.0447" height="30.2561" rx="15.128" fill="white"/>
<path fill-rule="evenodd" clip-rule="evenodd" d="M98.84 23.9521H45.0514C37.1606 23.9521 30.7638 30.3489 30.7638 38.2397C30.7638 46.1306 37.1606 52.5273 45.0514 52.5273H98.84C106.731 52.5273 113.128 46.1306 113.128 38.2397C113.128 30.3489 106.731 23.9521 98.84 23.9521ZM45.0514 23.1117C36.6964 23.1117 29.9233 29.8847 29.9233 38.2397C29.9233 46.5947 36.6964 53.3678 45.0514 53.3678H98.84C107.195 53.3678 113.968 46.5947 113.968 38.2397C113.968 29.8847 107.195 23.1117 98.84 23.1117H45.0514Z" fill="#00160A"/>
<path d="M57.6584 38.2393C57.6584 35.9185 59.5398 34.0371 61.8606 34.0371H95.4785C97.7993 34.0371 99.6807 35.9185 99.6807 38.2393C99.6807 40.5602 97.7993 42.4416 95.4785 42.4416H61.8606C59.5398 42.4416 57.6584 40.5602 57.6584 38.2393Z" fill="#C9D2FC"/>
<path d="M51.775 38.2393C51.775 41.9526 48.7647 44.9629 45.0514 44.9629C41.3381 44.9629 38.3278 41.9526 38.3278 38.2393C38.3278 34.526 41.3381 31.5157 45.0514 31.5157C48.7647 31.5157 51.775 34.526 51.775 38.2393Z" fill="#C9D2FC"/>
<path d="M0 63.4531C0 55.0981 6.77306 48.3251 15.128 48.3251H68.9166C77.2716 48.3251 84.0447 55.0981 84.0447 63.4531C84.0447 71.8081 77.2716 78.5812 68.9166 78.5812H15.128C6.77305 78.5812 0 71.8081 0 63.4531Z" fill="white"/>
<path fill-rule="evenodd" clip-rule="evenodd" d="M68.9166 49.1655H15.128C7.23722 49.1655 0.840447 55.5623 0.840447 63.4531C0.840447 71.3439 7.23722 77.7407 15.128 77.7407H68.9166C76.8074 77.7407 83.2042 71.3439 83.2042 63.4531C83.2042 55.5623 76.8074 49.1655 68.9166 49.1655ZM15.128 48.3251C6.77306 48.3251 0 55.0981 0 63.4531C0 71.8081 6.77305 78.5812 15.128 78.5812H68.9166C77.2716 78.5812 84.0447 71.8081 84.0447 63.4531C84.0447 55.0981 77.2716 48.3251 68.9166 48.3251H15.128Z" fill="#00160A"/>
<path d="M27.735 63.4528C27.735 61.132 29.6164 59.2506 31.9373 59.2506H65.5551C67.876 59.2506 69.7574 61.132 69.7574 63.4528C69.7574 65.7737 67.876 67.6551 65.5551 67.6551H31.9373C29.6164 67.6551 27.735 65.7737 27.735 63.4528Z" fill="#A4B1F3"/>
<path d="M21.8516 63.4528C21.8516 67.1661 18.8414 70.1764 15.1281 70.1764C11.4147 70.1764 8.40448 67.1661 8.40448 63.4528C8.40448 59.7395 11.4147 56.7292 15.1281 56.7292C18.8414 56.7292 21.8516 59.7395 21.8516 63.4528Z" fill="#A4B1F3"/>
</svg>
