<svg width="114" height="97" viewBox="0 0 114 97" fill="none" xmlns="http://www.w3.org/2000/svg">
<path d="M56.6165 96.6514C83.1956 96.6514 104.942 74.9048 104.942 48.3257C104.942 41.2962 103.589 34.8466 101.005 28.9769C98.5099 23.3081 99.5095 16.4126 102.308 10.8871C105.088 5.39783 99.9541 0 93.801 0H56.6165C30.0374 0 8.2908 21.7466 8.2908 48.3257C8.2908 74.9048 30.0374 96.6514 56.6165 96.6514ZM56.6165 22.2298C71.1142 22.2298 82.7124 33.828 82.7124 48.3257C82.7124 62.8234 71.1142 74.4216 56.6165 74.4216C42.1188 74.4216 30.5206 62.8234 30.5206 48.3257C30.5206 33.828 42.1188 22.2298 56.6165 22.2298Z" fill="#EBF5FB"/>
<g opacity="0.6">
<path fill-rule="evenodd" clip-rule="evenodd" d="M99.5903 79.2275C100.034 79.0711 100.501 78.8632 100.862 78.5621C101.29 78.2045 101.464 77.744 101.58 77.2593C101.73 76.6365 101.79 75.9731 101.972 75.3493C102.04 75.1177 102.169 75.0301 102.225 74.9912C102.366 74.8931 102.508 74.8668 102.641 74.8767C102.8 74.888 103.017 74.9473 103.161 75.21C103.181 75.2476 103.207 75.3049 103.225 75.3834C103.238 75.4409 103.247 75.6208 103.261 75.695C103.295 75.8777 103.324 76.0604 103.351 76.2441C103.441 76.8555 103.493 77.3749 103.777 77.9366C104.163 78.6991 104.55 79.1657 105.075 79.3724C105.582 79.5722 106.188 79.5346 106.963 79.3779C107.037 79.3603 107.11 79.3451 107.182 79.3328C107.524 79.2737 107.85 79.4955 107.917 79.8321C107.985 80.1685 107.767 80.4963 107.429 80.5702C107.358 80.5856 107.289 80.6003 107.22 80.6136C106.173 80.87 104.96 81.785 104.256 82.5862C104.039 82.8332 103.721 83.5239 103.397 83.9645C103.157 84.2895 102.888 84.5037 102.662 84.5794C102.511 84.6304 102.384 84.6226 102.278 84.5968C102.125 84.5595 101.998 84.4775 101.901 84.347C101.848 84.2756 101.798 84.18 101.775 84.0578C101.764 83.999 101.762 83.8497 101.763 83.782C101.697 83.5572 101.616 83.3377 101.557 83.1108C101.416 82.5695 101.14 82.2269 100.813 81.7742C100.506 81.3505 100.177 81.0843 99.6946 80.8718C99.6319 80.8567 99.1254 80.734 98.9466 80.6636C98.6853 80.5604 98.5608 80.3875 98.5156 80.2944C98.4388 80.1365 98.4309 79.9984 98.4462 79.8834C98.4689 79.7135 98.546 79.5682 98.6827 79.4509C98.7674 79.3779 98.894 79.307 99.0634 79.2725C99.1943 79.2455 99.5415 79.2298 99.5903 79.2275Z" fill="#7DB1FF"/>
<path fill-rule="evenodd" clip-rule="evenodd" d="M4.83296 9.22754C5.27691 9.07109 5.74409 8.86315 6.10436 8.56211C6.53224 8.20455 6.70625 7.74403 6.82311 7.25929C6.97313 6.63651 7.03308 5.9731 7.215 5.34932C7.28236 5.11767 7.41198 5.0301 7.46761 4.99124C7.60819 4.89308 7.7503 4.86685 7.88399 4.87669C8.04244 4.88804 8.26009 4.94734 8.40322 5.21002C8.42363 5.24762 8.45016 5.30491 8.46802 5.38338C8.48103 5.44092 8.48945 5.62083 8.50323 5.69502C8.53768 5.87772 8.56651 6.06042 8.59355 6.24412C8.68362 6.85554 8.73542 7.37485 9.01991 7.93656C9.40594 8.69913 9.79275 9.16571 10.3173 9.37238C10.8246 9.57223 11.431 9.53464 12.2059 9.37794C12.2797 9.36027 12.3526 9.34513 12.4248 9.33276C12.7665 9.27372 13.0931 9.49552 13.1602 9.83215C13.2273 10.1685 13.0101 10.4963 12.6716 10.5702C12.6009 10.5856 12.5312 10.6003 12.4623 10.6136C11.4152 10.87 10.203 11.785 9.49856 12.5862C9.28143 12.8332 8.96352 13.5239 8.63923 13.9645C8.3999 14.2895 8.13098 14.5037 7.90517 14.5794C7.75387 14.6304 7.6263 14.6226 7.52093 14.5968C7.36784 14.5595 7.24078 14.4775 7.14332 14.347C7.09025 14.2756 7.04099 14.18 7.01752 14.0578C7.00629 13.999 7.00502 13.8497 7.00528 13.782C6.9392 13.5572 6.85831 13.3377 6.79937 13.1108C6.65879 12.5695 6.38297 12.2269 6.05536 11.7742C5.74893 11.3505 5.41981 11.0843 4.93733 10.8718C4.87456 10.8566 4.36809 10.734 4.18924 10.6636C3.92797 10.5604 3.80345 10.3875 3.75829 10.2944C3.68149 10.1365 3.67359 9.99844 3.6889 9.88337C3.7116 9.71355 3.78866 9.5682 3.92542 9.45086C4.01012 9.37794 4.13668 9.30702 4.3061 9.27245C4.43698 9.24545 4.78422 9.22981 4.83296 9.22754Z" fill="#7DB1FF"/>
</g>
<rect x="30.3437" y="23.5319" width="83.2042" height="29.4156" rx="14.7078" fill="white" stroke="#00160A" stroke-width="0.840447"/>
<path d="M57.6584 38.2398C57.6584 35.919 59.5398 34.0376 61.8606 34.0376H95.4785C97.7993 34.0376 99.6808 35.919 99.6808 38.2398C99.6808 40.5607 97.7993 42.4421 95.4785 42.4421H61.8606C59.5398 42.4421 57.6584 40.5607 57.6584 38.2398Z" fill="#CEE2FF"/>
<path d="M51.775 38.2397C51.775 41.953 48.7648 44.9633 45.0514 44.9633C41.3381 44.9633 38.3279 41.953 38.3279 38.2397C38.3279 34.5264 41.3381 31.5161 45.0514 31.5161C48.7648 31.5161 51.775 34.5264 51.775 38.2397Z" fill="#CEE2FF"/>
<rect x="0.420223" y="48.7453" width="83.2042" height="29.4156" rx="14.7078" fill="white" stroke="#00160A" stroke-width="0.840447"/>
<g opacity="0.6">
<path d="M27.7345 63.4528C27.7345 61.132 29.6159 59.2506 31.9367 59.2506H65.5546C67.8754 59.2506 69.7568 61.132 69.7568 63.4528C69.7568 65.7737 67.8754 67.6551 65.5546 67.6551H31.9367C29.6159 67.6551 27.7345 65.7737 27.7345 63.4528Z" fill="#7DB1FF"/>
<path d="M21.8515 63.4527C21.8515 67.166 18.8413 70.1763 15.128 70.1763C11.4146 70.1763 8.40439 67.166 8.40439 63.4527C8.40439 59.7394 11.4146 56.7291 15.128 56.7291C18.8413 56.7291 21.8515 59.7394 21.8515 63.4527Z" fill="#7DB1FF"/>
</g>
</svg>
