<svg width="114" height="97" viewBox="0 0 114 97" fill="none" xmlns="http://www.w3.org/2000/svg">
<path d="M56.6167 96.6514C83.1958 96.6514 104.942 74.9048 104.942 48.3257C104.942 41.2962 103.589 34.8466 101.006 28.9769C98.5101 23.3081 99.5097 16.4126 102.308 10.8871C105.088 5.39783 99.9543 0 93.8012 0H56.6167C30.0376 0 8.29102 21.7466 8.29102 48.3257C8.29102 74.9048 30.0376 96.6514 56.6167 96.6514ZM56.6167 22.2298C71.1144 22.2298 82.7126 33.828 82.7126 48.3257C82.7126 62.8234 71.1144 74.4216 56.6167 74.4216C42.119 74.4216 30.5208 62.8234 30.5208 48.3257C30.5208 33.828 42.119 22.2298 56.6167 22.2298Z" fill="#EBFBFB"/>
<path fill-rule="evenodd" clip-rule="evenodd" d="M99.5934 79.0702C100.037 78.9137 100.504 78.7058 100.865 78.4048C101.293 78.0472 101.467 77.5867 101.584 77.1019C101.734 76.4792 101.793 75.8158 101.975 75.192C102.043 74.9603 102.172 74.8728 102.228 74.8339C102.369 74.7357 102.511 74.7095 102.644 74.7193C102.803 74.7307 103.02 74.79 103.164 75.0527C103.184 75.0903 103.211 75.1476 103.228 75.226C103.241 75.2836 103.25 75.4635 103.264 75.5377C103.298 75.7204 103.327 75.9031 103.354 76.0868C103.444 76.6982 103.496 77.2175 103.78 77.7792C104.166 78.5418 104.553 79.0084 105.078 79.215C105.585 79.4149 106.191 79.3773 106.966 79.2206C107.04 79.2029 107.113 79.1878 107.185 79.1754C107.527 79.1164 107.853 79.3382 107.921 79.6748C107.988 80.0112 107.771 80.339 107.432 80.4129C107.361 80.4283 107.292 80.4429 107.223 80.4563C106.176 80.7127 104.963 81.6277 104.259 82.4288C104.042 82.6759 103.724 83.3665 103.4 83.8071C103.16 84.1321 102.891 84.3464 102.666 84.4221C102.514 84.473 102.387 84.4652 102.281 84.4395C102.128 84.4021 102.001 84.3201 101.904 84.1897C101.851 84.1182 101.801 84.0226 101.778 83.9005C101.767 83.8417 101.765 83.6923 101.766 83.6247C101.7 83.3998 101.619 83.1803 101.56 82.9535C101.419 82.4122 101.143 82.0695 100.816 81.6168C100.509 81.1931 100.18 80.9269 99.6977 80.7144C99.635 80.6993 99.1285 80.5767 98.9496 80.5063C98.6884 80.403 98.5639 80.2302 98.5187 80.1371C98.4419 79.9791 98.434 79.8411 98.4493 79.726C98.472 79.5562 98.5491 79.4109 98.6858 79.2935C98.7705 79.2206 98.8971 79.1497 99.0665 79.1151C99.1974 79.0881 99.5446 79.0725 99.5934 79.0702Z" fill="#A3D7CB"/>
<path fill-rule="evenodd" clip-rule="evenodd" d="M4.83598 9.07031C5.27993 8.91386 5.74711 8.70593 6.10738 8.40489C6.53526 8.04732 6.70927 7.58681 6.82613 7.10206C6.97615 6.47929 7.0361 5.81587 7.21802 5.19209C7.28538 4.96044 7.415 4.87288 7.47063 4.83402C7.61121 4.73586 7.75332 4.70962 7.88701 4.71946C8.04546 4.73082 8.26311 4.79011 8.40624 5.0528C8.42666 5.0904 8.45318 5.14768 8.47104 5.22616C8.48406 5.28369 8.49248 5.46361 8.50625 5.53779C8.5407 5.72049 8.56953 5.90319 8.59658 6.08689C8.68664 6.69831 8.73844 7.21762 9.02293 7.77933C9.40897 8.54191 9.79577 9.00848 10.3204 9.21515C10.8276 9.415 11.4341 9.37741 12.2089 9.22071C12.2827 9.20305 12.3556 9.1879 12.4278 9.17554C12.7695 9.11649 13.0961 9.3383 13.1632 9.67492C13.2303 10.0113 13.0132 10.3391 12.6746 10.413C12.6039 10.4284 12.5342 10.443 12.4654 10.4564C11.4182 10.7128 10.206 11.6278 9.50158 12.429C9.28445 12.676 8.96654 13.3667 8.64225 13.8072C8.40292 14.1323 8.134 14.3465 7.90819 14.4222C7.75689 14.4732 7.62932 14.4654 7.52395 14.4396C7.37086 14.4023 7.2438 14.3202 7.14634 14.1898C7.09327 14.1184 7.04401 14.0227 7.02054 13.9006C7.00931 13.8418 7.00804 13.6924 7.0083 13.6248C6.94222 13.4 6.86133 13.1804 6.80239 12.9536C6.66181 12.4123 6.38599 12.0696 6.05839 11.6169C5.75196 11.1932 5.42283 10.927 4.94035 10.7146C4.87758 10.6994 4.37111 10.5768 4.19226 10.5064C3.93099 10.4032 3.80647 10.2303 3.76131 10.1372C3.68451 9.97923 3.67661 9.84121 3.69192 9.72614C3.71462 9.55632 3.79168 9.41097 3.92844 9.29364C4.01315 9.22071 4.1397 9.14979 4.30912 9.11522C4.44001 9.08822 4.78724 9.07258 4.83598 9.07031Z" fill="#A3D7CB"/>
<rect x="30.3436" y="23.5316" width="83.2042" height="29.4156" rx="14.7078" fill="white" stroke="#00160A" stroke-width="0.840447"/>
<rect x="57.6582" y="34.0371" width="42.0223" height="8.40447" rx="4.20223" fill="#C7F0E7"/>
<circle cx="45.0512" cy="38.2393" r="6.72357" fill="#C7F0E7"/>
<rect x="0.420223" y="48.7454" width="83.2042" height="29.4156" rx="14.7078" fill="white" stroke="#00160A" stroke-width="0.840447"/>
<rect opacity="0.7" x="27.7349" y="59.251" width="42.0223" height="8.40447" rx="4.20223" fill="#65BDA8"/>
<circle opacity="0.7" cx="15.1279" cy="63.4532" r="6.72357" fill="#65BDA8"/>
</svg>
