<svg width="114" height="98" viewBox="0 0 114 98" fill="none" xmlns="http://www.w3.org/2000/svg">
<path d="M56.6167 97.3027C83.1958 97.3027 104.942 75.5562 104.942 48.9771C104.942 41.9476 103.589 35.498 101.006 29.6283C98.5101 23.9594 99.5097 17.064 102.308 11.5385C105.088 6.0492 99.9543 0.651367 93.8012 0.651367H56.6167C30.0376 0.651367 8.29102 22.3979 8.29102 48.9771C8.29102 75.5562 30.0376 97.3027 56.6167 97.3027Z" fill="#FBF7EB"/>
<path fill-rule="evenodd" clip-rule="evenodd" d="M4.59111 9.87277C4.49529 9.88885 4.39935 9.90494 4.30429 9.92455C4.13488 9.95912 4.00832 10.03 3.92362 10.103C3.78686 10.2203 3.7098 10.3656 3.6871 10.5355C3.67179 10.6505 3.67969 10.7886 3.75649 10.9465C3.80165 11.0396 3.92617 11.2125 4.18744 11.3157C4.32686 11.3706 4.47066 11.417 4.61423 11.4633C4.96594 11.5767 5.31622 11.6897 5.59711 11.926C5.76301 12.0655 5.91075 12.2288 6.05356 12.4263C6.08379 12.468 6.11357 12.5088 6.14285 12.549C6.43091 12.9439 6.66996 13.2716 6.79757 13.7629C6.83267 13.898 6.87555 14.0305 6.91845 14.1631L6.92085 14.1705C6.95665 14.2811 6.97137 14.396 6.98614 14.5113C6.99464 14.5777 7.00316 14.6441 7.01572 14.7099C7.03919 14.8321 7.08844 14.9277 7.14152 14.9991C7.23898 15.1296 7.36604 15.2116 7.51913 15.2489C7.6245 15.2747 7.75207 15.2825 7.90337 15.2315C8.12918 15.1558 8.3981 14.9416 8.63743 14.6166C8.79797 14.3984 8.95695 14.119 9.10292 13.8625C9.25179 13.6009 9.38712 13.363 9.49676 13.2383C10.2012 12.4371 11.4134 11.5221 12.4605 11.2657C12.5294 11.2524 12.5991 11.2377 12.6698 11.2223C13.0083 11.1484 13.2255 10.8206 13.1584 10.4842C13.0913 10.1476 12.7647 9.92582 12.423 9.98486C12.3508 9.99723 12.2779 10.0124 12.2041 10.03C11.4292 10.1867 10.8228 10.2243 10.3155 10.0245C9.79095 9.81781 9.40414 9.35123 9.01811 8.58866C8.76196 8.08291 8.69445 7.61153 8.6178 7.07635C8.60932 7.01713 8.60073 6.95713 8.59175 6.89622C8.56471 6.71252 8.53588 6.52982 8.50143 6.34712C8.49471 6.3109 8.48926 6.24948 8.48393 6.18941C8.47834 6.12643 8.47288 6.06493 8.46622 6.03548C8.44836 5.95701 8.42183 5.89972 8.40142 5.86212C8.25829 5.59944 8.04064 5.54014 7.88219 5.52879C7.7485 5.51894 7.60639 5.54518 7.4658 5.64334L7.46318 5.64518C7.4062 5.68494 7.27952 5.77334 7.2132 6.00142C7.10947 6.35708 7.0454 6.72562 6.98167 7.09218C6.93363 7.3685 6.88579 7.6437 6.82131 7.91139C6.70445 8.39613 6.53044 8.85665 6.10256 9.21421C5.87449 9.40479 5.60357 9.55805 5.32282 9.68456C5.09144 9.78883 4.84165 9.83073 4.59111 9.87277ZM99.3489 79.8728C99.2531 79.8888 99.1572 79.9049 99.0621 79.9246C98.8927 79.9591 98.7661 80.03 98.6814 80.103C98.5447 80.2203 98.4676 80.3656 98.4449 80.5355C98.4296 80.6505 98.4375 80.7886 98.5143 80.9465C98.5595 81.0396 98.684 81.2125 98.9453 81.3157C99.0847 81.3706 99.2285 81.417 99.372 81.4633C99.7238 81.5767 100.074 81.6897 100.355 81.926C100.521 82.0655 100.669 82.2288 100.811 82.4263C100.842 82.468 100.871 82.5089 100.901 82.549C101.189 82.9439 101.428 83.2716 101.555 83.7629C101.59 83.8979 101.633 84.0304 101.676 84.163L101.679 84.1705C101.714 84.2811 101.729 84.396 101.744 84.5113C101.752 84.5777 101.761 84.6441 101.774 84.7099C101.797 84.8321 101.846 84.9277 101.899 84.9991C101.997 85.1296 102.124 85.2116 102.277 85.2489C102.382 85.2747 102.51 85.2825 102.661 85.2315C102.887 85.1558 103.156 84.9416 103.395 84.6166C103.556 84.3984 103.715 84.119 103.861 83.8625C104.01 83.6009 104.145 83.363 104.255 83.2383C104.959 82.4371 106.171 81.5221 107.218 81.2657C107.269 81.256 107.319 81.2455 107.371 81.2346C107.389 81.2306 107.408 81.2265 107.428 81.2223C107.766 81.1484 107.983 80.8206 107.916 80.4842C107.849 80.1476 107.522 79.9258 107.181 79.9849C107.109 79.9972 107.036 80.0124 106.962 80.03C106.187 80.1867 105.581 80.2243 105.073 80.0245C104.549 79.8178 104.162 79.3512 103.776 78.5887C103.52 78.0829 103.452 77.6116 103.376 77.0764C103.367 77.0172 103.359 76.9572 103.35 76.8962C103.323 76.7125 103.294 76.5298 103.259 76.3471C103.253 76.3109 103.247 76.2495 103.242 76.1894C103.236 76.1264 103.231 76.0649 103.224 76.0355C103.206 75.957 103.18 75.8997 103.159 75.8621C103.016 75.5994 102.798 75.5401 102.64 75.5288C102.506 75.5189 102.364 75.5452 102.224 75.6433L102.221 75.6452C102.164 75.6849 102.037 75.7733 101.971 76.0014C101.867 76.3571 101.803 76.7256 101.739 77.0922C101.691 77.3685 101.644 77.6437 101.579 77.9114C101.462 78.3961 101.288 78.8566 100.86 79.2142C100.632 79.4048 100.361 79.5581 100.081 79.6846C99.8493 79.7888 99.5995 79.8307 99.3489 79.8728Z" fill="#EFD0A5"/>
<rect x="30.3441" y="24.1833" width="83.2042" height="29.4156" rx="14.7078" fill="white" stroke="#00160A" stroke-width="0.840447"/>
<path d="M57.6592 38.8911C57.6592 36.5702 59.5406 34.6888 61.8614 34.6888H95.4793C97.8001 34.6888 99.6815 36.5702 99.6815 38.8911C99.6815 41.2119 97.8001 43.0933 95.4793 43.0933H61.8614C59.5406 43.0933 57.6592 41.2119 57.6592 38.8911Z" fill="#FFE5DD"/>
<path d="M51.7753 38.8909C51.7753 42.6043 48.765 45.6145 45.0517 45.6145C41.3384 45.6145 38.3281 42.6043 38.3281 38.8909C38.3281 35.1776 41.3384 32.1674 45.0517 32.1674C48.765 32.1674 51.7753 35.1776 51.7753 38.8909Z" fill="#FFE5DD"/>
<rect x="0.420223" y="49.3968" width="83.2042" height="29.4156" rx="14.7078" fill="white" stroke="#00160A" stroke-width="0.840447"/>
<rect x="27.7344" y="59.9023" width="42.0223" height="8.40447" rx="4.20223" fill="#EFD0A5"/>
<circle cx="15.1279" cy="64.1044" r="6.72357" fill="#EFD0A5"/>
</svg>
